# xmcd CD database file
#
# Track frame offsets:
#	150
#	21223
#	40805
#	76521
#	97555
#	125467
#	152314
#	176931
#
# Disc length: 2665 seconds
#
# Revision: 0
# Processed by: cddbd v1.5.2PL0 Copyright (c) Steve Scherf et al.
# Submitted via: CDex 1.51
#
DISCID=4a0a6708
DTITLE=Bottom Rhythm Jam - Encounter
DYEAR=2008
DGENRE=Jazz
TTITLE0=Smoky
TTITLE1=Crisis
TTITLE2=Step
TTITLE3=Encounter
TTITLE4=Core G
TTITLE5=Shoulder
TTITLE6=Miscount
TTITLE7=Dizzy Dance
EXTD=YEAR: 2008
EXTT0=
EXTT1=
EXTT2=
EXTT3=
EXTT4=
EXTT5=
EXTT6=
EXTT7=
PLAYORDER=
